<svg width="44" height="44" viewBox="0 0 44 44" fill="none" xmlns="http://www.w3.org/2000/svg">
<g clip-path="url(#clip0_217_7)">
<mask id="mask0_217_7" style="mask-type:luminance" maskUnits="userSpaceOnUse" x="0" y="0" width="44" height="44">
<path d="M44 0H0V44H44V0Z" fill="white"/>
</mask>
<g mask="url(#mask0_217_7)">
<path d="M35.75 24.8819L22 38.4999L16.6906 33.2419M5.47612 18.3846C5.4608 16.4511 6.05727 14.5622 7.18024 12.9882C8.3032 11.4141 9.89515 10.2355 11.7284 9.62079C13.5617 9.00611 15.5424 8.98687 17.3872 9.56583C19.2321 10.1448 20.8466 11.2923 22 12.8442C22.7581 11.8359 23.7162 10.995 24.8143 10.374C25.9124 9.75304 27.1269 9.3654 28.3817 9.23536C29.6365 9.10532 30.9046 9.23569 32.1067 9.61829C33.3088 10.0009 34.419 10.6275 35.3678 11.4589C36.3166 12.2903 37.0836 13.3086 37.6207 14.45C38.1579 15.5915 38.4536 16.8315 38.4895 18.0925C38.5254 19.3536 38.3006 20.6084 37.8292 21.7785C37.3578 22.9487 36.65 24.0089 35.75 24.8929" stroke="#fff" stroke-width="2.75" stroke-linecap="round" stroke-linejoin="round"/>
<path d="M5.5 23.8333H9.16667L12.8333 29.3333L16.5 18.3333L18.3333 23.8333H23.8333" stroke="#fff" stroke-width="2.75" stroke-linecap="round" stroke-linejoin="round"/>
</g>
</g>
<defs>
<clipPath id="clip0_217_7">
<rect width="44" height="44" fill="white"/>
</clipPath>
</defs>
</svg>
