<svg width="44" height="44" viewBox="0 0 44 44" fill="none" xmlns="http://www.w3.org/2000/svg">
<g clip-path="url(#clip0_101_8)">
<path d="M34.8334 16.5H16.5C14.475 16.5 12.8334 18.1416 12.8334 20.1667V31.1667C12.8334 33.1917 14.475 34.8333 16.5 34.8333H34.8334C36.8584 34.8333 38.5 33.1917 38.5 31.1667V20.1667C38.5 18.1416 36.8584 16.5 34.8334 16.5Z" stroke="#F5CB5C" stroke-width="2.75" stroke-linecap="round" stroke-linejoin="round"/>
<path d="M25.6667 29.3333C27.6917 29.3333 29.3333 27.6917 29.3333 25.6667C29.3333 23.6416 27.6917 22 25.6667 22C23.6416 22 22 23.6416 22 25.6667C22 27.6917 23.6416 29.3333 25.6667 29.3333Z" stroke="#F5CB5C" stroke-width="2.75" stroke-linecap="round" stroke-linejoin="round"/>
<path d="M31.1667 16.5001V12.8334C31.1667 11.861 30.7804 10.9283 30.0927 10.2407C29.4051 9.55306 28.4725 9.16675 27.5 9.16675H9.16667C8.19421 9.16675 7.26158 9.55306 6.57394 10.2407C5.88631 10.9283 5.5 11.861 5.5 12.8334V23.8334C5.5 24.8059 5.88631 25.7385 6.57394 26.4261C7.26158 27.1138 8.19421 27.5001 9.16667 27.5001H12.8333" stroke="#F5CB5C" stroke-width="2.75" stroke-linecap="round" stroke-linejoin="round"/>
</g>
<defs>
<clipPath id="clip0_101_8">
<rect width="44" height="44" fill="white"/>
</clipPath>
</defs>
</svg>
