<svg width="25" height="36" viewBox="0 0 25 36" fill="none" xmlns="http://www.w3.org/2000/svg">
<path d="M4.56855 34.7657C4.83365 34.9645 5.20975 34.9108 5.40855 34.6457L9.92645 28.6219C9.99635 28.5286 10.0376 28.4171 10.0451 28.3008L10.3291 23.9294L12.4231 26.2698V34.2857C12.4231 34.6171 12.6918 34.8857 13.0231 34.8857H15.2821C15.6134 34.8857 15.8821 34.6171 15.8821 34.2857V25.137C15.8821 25.0128 15.8435 24.8917 15.7717 24.7903L12.2202 19.7743C12.1904 19.0641 12.2456 18.2488 12.3921 17.3247C12.4805 16.7672 12.5894 16.2387 12.7184 15.7389C13.3106 16.4504 14.0226 17.0875 14.8501 17.6513C15.879 18.3523 16.8898 18.8682 17.8821 19.1866V19.9791C17.8821 20.3105 18.1508 20.5791 18.4822 20.5791H19.6117C19.943 20.5791 20.2117 20.3105 20.2117 19.9791V18.8497C20.2117 18.718 20.2538 18.6043 20.3748 18.4833C20.4957 18.3624 20.6095 18.3202 20.7411 18.3202C20.8728 18.3202 20.9865 18.3624 21.1075 18.4833C21.2284 18.6043 21.2705 18.718 21.2705 18.8497V34.2857C21.2705 34.6171 21.5392 34.8857 21.8706 34.8857H23C23.3313 34.8857 23.6 34.6171 23.6 34.2857V18.8497C23.6 18.0854 23.2769 17.4158 22.7033 16.8574C22.1329 16.302 21.4611 15.9908 20.7034 15.9908C20.4845 15.9908 20.2697 16.0142 20.0602 16.0626C19.9156 16.096 19.7737 16.1453 19.6346 16.208C18.4096 15.8063 17.371 15.2764 16.5099 14.6251C15.6155 13.9486 14.9389 13.0844 14.4769 12.0219L14.4749 12.0175C13.9592 10.8572 13.4013 9.95053 12.7835 9.34713C12.1456 8.72403 11.391 8.38573 10.5383 8.38573C10.1151 8.38573 9.68245 8.46133 9.24345 8.60293C8.80565 8.74413 8.35845 8.95193 7.90245 9.21993L1.61765 12.8328C1.43145 12.9398 1.31665 13.1382 1.31665 13.353V18.8497C1.31665 19.1811 1.58535 19.4497 1.91665 19.4497H4.17565C4.50695 19.4497 4.77565 19.1811 4.77565 18.8497V15.0171L6.80985 13.8427C6.61595 14.607 6.46225 15.4285 6.34785 16.3061C6.15575 17.7789 6.08455 19.1869 6.13615 20.5293L6.13625 20.5313L6.42845 27.5088L2.64105 32.5709C2.44265 32.836 2.49655 33.2117 2.76145 33.4103L4.56855 34.7657ZM10.7729 7.01933C11.4233 7.66973 12.2216 8.00443 13.1361 8.00443C14.0506 8.00443 14.8488 7.66973 15.4993 7.01933C16.1497 6.36883 16.4844 5.57063 16.4844 4.65611C16.4844 3.7416 16.1497 2.94338 15.4993 2.29293C14.8488 1.64248 14.0506 1.30774 13.1361 1.30774C12.2216 1.30774 11.4233 1.64248 10.7729 2.29293C10.1224 2.94338 9.78765 3.7416 9.78765 4.65611C9.78765 5.57063 10.1224 6.36883 10.7729 7.01933Z" stroke="#fff" stroke-width="1.2" stroke-linejoin="round"/>
</svg>
