<svg width="44" height="44" viewBox="0 0 44 44" fill="none" xmlns="http://www.w3.org/2000/svg">
<path d="M14.5685 39.7657C14.8336 39.9645 15.2097 39.9108 15.4085 39.6457L19.9264 33.6219C19.9963 33.5286 20.0376 33.4171 20.0451 33.3008L20.329 28.9294L22.423 31.2698V39.2857C22.423 39.6171 22.6917 39.8857 23.023 39.8857H25.282C25.6133 39.8857 25.882 39.6171 25.882 39.2857V30.137C25.882 30.0128 25.8434 29.8917 25.7716 29.7903L22.2201 24.7743C22.1903 24.0641 22.2455 23.2488 22.392 22.3247C22.4804 21.7672 22.5893 21.2387 22.7183 20.7389C23.3105 21.4504 24.0225 22.0875 24.85 22.6513C25.8789 23.3523 26.8898 23.8682 27.8821 24.1866V24.9791C27.8821 25.3105 28.1507 25.5791 28.4821 25.5791H29.6116C29.9429 25.5791 30.2116 25.3105 30.2116 24.9791V23.8497C30.2116 23.718 30.2537 23.6043 30.3747 23.4833C30.4956 23.3624 30.6094 23.3202 30.741 23.3202C30.8727 23.3202 30.9864 23.3624 31.1074 23.4833C31.2283 23.6043 31.2705 23.718 31.2705 23.8497V39.2857C31.2705 39.6171 31.5391 39.8857 31.8705 39.8857H33C33.3313 39.8857 33.6 39.6171 33.6 39.2857V23.8497C33.6 23.0854 33.2768 22.4158 32.7032 21.8574C32.1328 21.302 31.4611 20.9908 30.7034 20.9908C30.4845 20.9908 30.2697 21.0142 30.0602 21.0626C29.9156 21.096 29.7736 21.1453 29.6345 21.208C28.4095 20.8063 27.3709 20.2764 26.5098 19.6251C25.6154 18.9486 24.9388 18.0844 24.4768 17.0219L24.4769 17.0219L24.4749 17.0175C23.9592 15.8572 23.4012 14.9505 22.7834 14.3471C22.1455 13.724 21.3909 13.3857 20.5382 13.3857C20.115 13.3857 19.6824 13.4613 19.2434 13.6029C18.8056 13.7441 18.3584 13.9519 17.9024 14.2199L11.6176 17.8328C11.4314 17.9398 11.3166 18.1382 11.3166 18.353V23.8497C11.3166 24.1811 11.5853 24.4497 11.9166 24.4497H14.1756C14.5069 24.4497 14.7756 24.1811 14.7756 23.8497V20.0171L16.8098 18.8427C16.6159 19.607 16.4622 20.4285 16.3478 21.3061C16.1557 22.7789 16.0845 24.1869 16.1361 25.5293L16.1362 25.5313L16.4284 32.5088L12.641 37.5709C12.4426 37.836 12.4965 38.2117 12.7614 38.4103L14.5685 39.7657ZM20.7728 12.0193C21.4232 12.6697 22.2215 13.0044 23.136 13.0044C24.0505 13.0044 24.8487 12.6697 25.4992 12.0193C26.1496 11.3688 26.4843 10.5706 26.4843 9.65608C26.4843 8.74157 26.1496 7.94335 25.4992 7.2929C24.8487 6.64245 24.0505 6.30771 23.136 6.30771C22.2215 6.30771 21.4232 6.64245 20.7728 7.2929C20.1223 7.94335 19.7876 8.74157 19.7876 9.65608C19.7876 10.5706 20.1223 11.3688 20.7728 12.0193Z" stroke="#F5CB5C" stroke-width="1.2" stroke-linejoin="round"/>
</svg>
